<mxfile host="Electron" agent="Mozilla/5.0 (Windows NT 10.0; Win64; x64) AppleWebKit/537.36 (KHTML, like Gecko) draw.io/24.7.17 Chrome/128.0.6613.36 Electron/32.0.1 Safari/537.36" version="24.7.17">
  <diagram name="Page-1" id="2cc2dc42-3aac-f2a9-1cec-7a8b7cbee084">
    <mxGraphModel dx="1172" dy="988" grid="1" gridSize="10" guides="1" tooltips="1" connect="1" arrows="1" fold="1" page="0" pageScale="1" pageWidth="1100" pageHeight="850" background="none" math="0" shadow="0">
      <root>
        <mxCell id="0" />
        <mxCell id="1" parent="0" />
        <mxCell id="ouvQM5jBwTIjD2_veTdS-2" value="" style="strokeWidth=1;shadow=0;dashed=0;align=center;html=1;shape=mxgraph.mockup.containers.browserWindow;rSize=0;strokeColor=#666666;strokeColor2=#008cff;strokeColor3=#c4c4c4;mainText=,;recursiveResize=0;container=0;movable=0;resizable=0;rotatable=0;deletable=0;editable=0;locked=1;connectable=0;" vertex="1" parent="1">
          <mxGeometry x="40" width="1040" height="814.55" as="geometry" />
        </mxCell>
        <mxCell id="ouvQM5jBwTIjD2_veTdS-3" value="Poker" style="strokeWidth=1;shadow=0;dashed=0;align=center;html=1;shape=mxgraph.mockup.containers.anchor;fontSize=17;fontColor=#666666;align=left;whiteSpace=wrap;movable=0;resizable=0;rotatable=0;deletable=0;editable=0;locked=1;connectable=0;" vertex="1" parent="1">
          <mxGeometry x="102" y="14" width="110" height="26" as="geometry" />
        </mxCell>
        <mxCell id="ouvQM5jBwTIjD2_veTdS-4" value="localhost:3000/login" style="strokeWidth=1;shadow=0;dashed=0;align=center;html=1;shape=mxgraph.mockup.containers.anchor;rSize=0;fontSize=17;fontColor=#666666;align=left;movable=0;resizable=0;rotatable=0;deletable=0;editable=0;locked=1;connectable=0;" vertex="1" parent="1">
          <mxGeometry x="170" y="60" width="250" height="26" as="geometry" />
        </mxCell>
        <mxCell id="ouvQM5jBwTIjD2_veTdS-5" value="" style="strokeWidth=1;shadow=0;dashed=0;align=center;html=1;shape=mxgraph.mockup.forms.rrect;rSize=0;strokeColor=#999999;fillColor=#ffffff;movable=0;resizable=0;rotatable=0;deletable=0;editable=0;locked=1;connectable=0;" vertex="1" parent="1">
          <mxGeometry x="440" y="232" width="200" height="300" as="geometry" />
        </mxCell>
        <mxCell id="ouvQM5jBwTIjD2_veTdS-6" value="Log-in" style="strokeWidth=1;shadow=0;dashed=0;align=center;html=1;shape=mxgraph.mockup.forms.anchor;fontSize=12;fontColor=#666666;align=left;resizeWidth=1;spacingLeft=0;movable=0;resizable=0;rotatable=0;deletable=0;editable=0;locked=1;connectable=0;" vertex="1" parent="ouvQM5jBwTIjD2_veTdS-5">
          <mxGeometry width="40" height="20" relative="1" as="geometry">
            <mxPoint x="75" y="10" as="offset" />
          </mxGeometry>
        </mxCell>
        <mxCell id="ouvQM5jBwTIjD2_veTdS-7" value="" style="shape=line;strokeColor=#ddeeff;strokeWidth=2;html=1;resizeWidth=1;movable=0;resizable=0;rotatable=0;deletable=0;editable=0;locked=1;connectable=0;" vertex="1" parent="ouvQM5jBwTIjD2_veTdS-5">
          <mxGeometry width="180" height="10" relative="1" as="geometry">
            <mxPoint x="10" y="30" as="offset" />
          </mxGeometry>
        </mxCell>
        <mxCell id="ouvQM5jBwTIjD2_veTdS-8" value="Email:" style="strokeWidth=1;shadow=0;dashed=0;align=center;html=1;shape=mxgraph.mockup.forms.anchor;fontSize=12;fontColor=#666666;align=left;resizeWidth=1;spacingLeft=0;movable=0;resizable=0;rotatable=0;deletable=0;editable=0;locked=1;connectable=0;" vertex="1" parent="ouvQM5jBwTIjD2_veTdS-5">
          <mxGeometry width="100" height="20" relative="1" as="geometry">
            <mxPoint x="10" y="40" as="offset" />
          </mxGeometry>
        </mxCell>
        <mxCell id="ouvQM5jBwTIjD2_veTdS-9" value="johndoe@email.com" style="strokeWidth=1;shadow=0;dashed=0;align=center;html=1;shape=mxgraph.mockup.forms.rrect;rSize=0;strokeColor=#999999;fontColor=#666666;align=left;spacingLeft=5;resizeWidth=1;movable=0;resizable=0;rotatable=0;deletable=0;editable=0;locked=1;connectable=0;" vertex="1" parent="ouvQM5jBwTIjD2_veTdS-5">
          <mxGeometry width="170" height="25" relative="1" as="geometry">
            <mxPoint x="10" y="60" as="offset" />
          </mxGeometry>
        </mxCell>
        <mxCell id="ouvQM5jBwTIjD2_veTdS-10" value="Password:" style="strokeWidth=1;shadow=0;dashed=0;align=center;html=1;shape=mxgraph.mockup.forms.anchor;fontSize=12;fontColor=#666666;align=left;resizeWidth=1;spacingLeft=0;movable=0;resizable=0;rotatable=0;deletable=0;editable=0;locked=1;connectable=0;" vertex="1" parent="ouvQM5jBwTIjD2_veTdS-5">
          <mxGeometry width="100" height="20" relative="1" as="geometry">
            <mxPoint x="10" y="95" as="offset" />
          </mxGeometry>
        </mxCell>
        <mxCell id="ouvQM5jBwTIjD2_veTdS-11" value="********" style="strokeWidth=1;shadow=0;dashed=0;align=center;html=1;shape=mxgraph.mockup.forms.rrect;rSize=0;strokeColor=#999999;fontColor=#666666;align=left;spacingLeft=5;resizeWidth=1;movable=0;resizable=0;rotatable=0;deletable=0;editable=0;locked=1;connectable=0;" vertex="1" parent="ouvQM5jBwTIjD2_veTdS-5">
          <mxGeometry width="170" height="25" relative="1" as="geometry">
            <mxPoint x="10" y="115" as="offset" />
          </mxGeometry>
        </mxCell>
        <mxCell id="ouvQM5jBwTIjD2_veTdS-12" value="SIGN IN" style="strokeWidth=1;shadow=0;dashed=0;align=center;html=1;shape=mxgraph.mockup.forms.rrect;rSize=5;strokeColor=none;fontColor=#ffffff;fillColor=#66bbff;fontSize=16;fontStyle=1;movable=0;resizable=0;rotatable=0;deletable=0;editable=0;locked=1;connectable=0;" vertex="1" parent="ouvQM5jBwTIjD2_veTdS-5">
          <mxGeometry y="1" width="80" height="30" relative="1" as="geometry">
            <mxPoint x="60" y="-150" as="offset" />
          </mxGeometry>
        </mxCell>
        <mxCell id="ouvQM5jBwTIjD2_veTdS-14" value="" style="shape=line;strokeColor=#ddeeff;strokeWidth=2;html=1;resizeWidth=1;movable=0;resizable=0;rotatable=0;deletable=0;editable=0;locked=1;connectable=0;" vertex="1" parent="ouvQM5jBwTIjD2_veTdS-5">
          <mxGeometry y="1" width="180" height="10" relative="1" as="geometry">
            <mxPoint x="10" y="-110" as="offset" />
          </mxGeometry>
        </mxCell>
        <mxCell id="ouvQM5jBwTIjD2_veTdS-15" value="New User" style="strokeWidth=1;shadow=0;dashed=0;align=center;html=1;shape=mxgraph.mockup.forms.anchor;fontSize=12;fontColor=#666666;align=left;spacingLeft=0;resizeWidth=1;movable=0;resizable=0;rotatable=0;deletable=0;editable=0;locked=1;connectable=0;" vertex="1" parent="ouvQM5jBwTIjD2_veTdS-5">
          <mxGeometry y="1" width="60" height="20" relative="1" as="geometry">
            <mxPoint x="70" y="-92" as="offset" />
          </mxGeometry>
        </mxCell>
        <mxCell id="ouvQM5jBwTIjD2_veTdS-16" value="SIGN UP" style="strokeWidth=1;shadow=0;dashed=0;align=center;html=1;shape=mxgraph.mockup.forms.rrect;rSize=5;strokeColor=none;fontColor=#ffffff;fillColor=#66bbff;fontSize=16;fontStyle=1;movable=0;resizable=0;rotatable=0;deletable=0;editable=0;locked=1;connectable=0;" vertex="1" parent="ouvQM5jBwTIjD2_veTdS-5">
          <mxGeometry y="1" width="80" height="30" relative="1" as="geometry">
            <mxPoint x="60" y="-62" as="offset" />
          </mxGeometry>
        </mxCell>
        <mxCell id="ouvQM5jBwTIjD2_veTdS-18" value="&lt;h1&gt;&lt;span style=&quot;font-size: 36px;&quot;&gt;Poker&lt;/span&gt;&lt;/h1&gt;&lt;div&gt;&lt;span style=&quot;font-size: 36px;&quot;&gt;by CodingBlocks&lt;/span&gt;&lt;/div&gt;" style="text;html=1;align=center;verticalAlign=middle;whiteSpace=wrap;rounded=0;movable=0;resizable=0;rotatable=0;deletable=0;editable=0;locked=1;connectable=0;" vertex="1" parent="1">
          <mxGeometry x="110" y="145" width="290" height="120" as="geometry" />
        </mxCell>
        <mxCell id="ouvQM5jBwTIjD2_veTdS-20" value="" style="strokeWidth=1;shadow=0;dashed=0;align=center;html=1;shape=mxgraph.mockup.forms.rrect;rSize=0;strokeColor=#999999;fillColor=#ffffff;movable=0;resizable=0;rotatable=0;deletable=0;editable=0;locked=1;connectable=0;" vertex="1" parent="1">
          <mxGeometry x="700" y="420" width="200" height="250" as="geometry" />
        </mxCell>
        <mxCell id="ouvQM5jBwTIjD2_veTdS-21" value="Sign-up" style="strokeWidth=1;shadow=0;dashed=0;align=center;html=1;shape=mxgraph.mockup.forms.anchor;fontSize=12;fontColor=#666666;align=left;resizeWidth=1;spacingLeft=0;movable=0;resizable=0;rotatable=0;deletable=0;editable=0;locked=1;connectable=0;" vertex="1" parent="ouvQM5jBwTIjD2_veTdS-20">
          <mxGeometry width="40" height="20" relative="1" as="geometry">
            <mxPoint x="75" y="10" as="offset" />
          </mxGeometry>
        </mxCell>
        <mxCell id="ouvQM5jBwTIjD2_veTdS-22" value="" style="shape=line;strokeColor=#ddeeff;strokeWidth=2;html=1;resizeWidth=1;movable=0;resizable=0;rotatable=0;deletable=0;editable=0;locked=1;connectable=0;" vertex="1" parent="ouvQM5jBwTIjD2_veTdS-20">
          <mxGeometry width="180" height="10" relative="1" as="geometry">
            <mxPoint x="10" y="30" as="offset" />
          </mxGeometry>
        </mxCell>
        <mxCell id="ouvQM5jBwTIjD2_veTdS-23" value="Email:" style="strokeWidth=1;shadow=0;dashed=0;align=center;html=1;shape=mxgraph.mockup.forms.anchor;fontSize=12;fontColor=#666666;align=left;resizeWidth=1;spacingLeft=0;movable=0;resizable=0;rotatable=0;deletable=0;editable=0;locked=1;connectable=0;" vertex="1" parent="ouvQM5jBwTIjD2_veTdS-20">
          <mxGeometry width="100" height="20" relative="1" as="geometry">
            <mxPoint x="10" y="40" as="offset" />
          </mxGeometry>
        </mxCell>
        <mxCell id="ouvQM5jBwTIjD2_veTdS-24" value="johndoe@email.com" style="strokeWidth=1;shadow=0;dashed=0;align=center;html=1;shape=mxgraph.mockup.forms.rrect;rSize=0;strokeColor=#999999;fontColor=#666666;align=left;spacingLeft=5;resizeWidth=1;movable=0;resizable=0;rotatable=0;deletable=0;editable=0;locked=1;connectable=0;" vertex="1" parent="ouvQM5jBwTIjD2_veTdS-20">
          <mxGeometry width="170" height="25" relative="1" as="geometry">
            <mxPoint x="10" y="60" as="offset" />
          </mxGeometry>
        </mxCell>
        <mxCell id="ouvQM5jBwTIjD2_veTdS-25" value="User Name:" style="strokeWidth=1;shadow=0;dashed=0;align=center;html=1;shape=mxgraph.mockup.forms.anchor;fontSize=12;fontColor=#666666;align=left;resizeWidth=1;spacingLeft=0;movable=0;resizable=0;rotatable=0;deletable=0;editable=0;locked=1;connectable=0;" vertex="1" parent="ouvQM5jBwTIjD2_veTdS-20">
          <mxGeometry width="100" height="20" relative="1" as="geometry">
            <mxPoint x="10" y="95" as="offset" />
          </mxGeometry>
        </mxCell>
        <mxCell id="ouvQM5jBwTIjD2_veTdS-26" value="johndoe" style="strokeWidth=1;shadow=0;dashed=0;align=center;html=1;shape=mxgraph.mockup.forms.rrect;rSize=0;strokeColor=#999999;fontColor=#666666;align=left;spacingLeft=5;resizeWidth=1;movable=0;resizable=0;rotatable=0;deletable=0;editable=0;locked=1;connectable=0;" vertex="1" parent="ouvQM5jBwTIjD2_veTdS-20">
          <mxGeometry width="170" height="25" relative="1" as="geometry">
            <mxPoint x="10" y="115" as="offset" />
          </mxGeometry>
        </mxCell>
        <mxCell id="ouvQM5jBwTIjD2_veTdS-27" value="CREATE" style="strokeWidth=1;shadow=0;dashed=0;align=center;html=1;shape=mxgraph.mockup.forms.rrect;rSize=5;strokeColor=none;fontColor=#ffffff;fillColor=#66bbff;fontSize=16;fontStyle=1;movable=0;resizable=0;rotatable=0;deletable=0;editable=0;locked=1;connectable=0;" vertex="1" parent="ouvQM5jBwTIjD2_veTdS-20">
          <mxGeometry y="1" width="80" height="30" relative="1" as="geometry">
            <mxPoint x="60" y="-40" as="offset" />
          </mxGeometry>
        </mxCell>
        <mxCell id="ouvQM5jBwTIjD2_veTdS-31" value="Password:" style="strokeWidth=1;shadow=0;dashed=0;align=center;html=1;shape=mxgraph.mockup.forms.anchor;fontSize=12;fontColor=#666666;align=left;resizeWidth=1;spacingLeft=0;movable=0;resizable=0;rotatable=0;deletable=0;editable=0;locked=1;connectable=0;" vertex="1" parent="ouvQM5jBwTIjD2_veTdS-20">
          <mxGeometry x="10" y="152.17391304347825" width="100" height="21.73913043478261" as="geometry" />
        </mxCell>
        <mxCell id="ouvQM5jBwTIjD2_veTdS-32" value="********" style="strokeWidth=1;shadow=0;dashed=0;align=center;html=1;shape=mxgraph.mockup.forms.rrect;rSize=0;strokeColor=#999999;fontColor=#666666;align=left;spacingLeft=5;resizeWidth=1;movable=0;resizable=0;rotatable=0;deletable=0;editable=0;locked=1;connectable=0;" vertex="1" parent="ouvQM5jBwTIjD2_veTdS-20">
          <mxGeometry x="10" y="173.91304347826087" width="170" height="27.173913043478258" as="geometry" />
        </mxCell>
        <mxCell id="ouvQM5jBwTIjD2_veTdS-34" value="" style="shape=flexArrow;endArrow=classic;html=1;rounded=0;dashed=1;movable=0;resizable=0;rotatable=0;deletable=0;editable=0;locked=1;connectable=0;" edge="1" parent="1">
          <mxGeometry width="50" height="50" relative="1" as="geometry">
            <mxPoint x="670" y="350" as="sourcePoint" />
            <mxPoint x="720" y="400" as="targetPoint" />
          </mxGeometry>
        </mxCell>
        <mxCell id="ouvQM5jBwTIjD2_veTdS-35" value="&lt;h2&gt;GAME REQUIRES LOGIN&lt;/h2&gt;" style="strokeWidth=1;shadow=0;dashed=0;align=center;html=1;shape=mxgraph.mockup.forms.anchor;fontSize=12;fontColor=#666666;align=left;resizeWidth=1;spacingLeft=0;movable=0;resizable=0;rotatable=0;deletable=0;editable=0;locked=1;connectable=0;" vertex="1" parent="1">
          <mxGeometry x="430" y="190" width="220" height="30" as="geometry" />
        </mxCell>
        <mxCell id="ouvQM5jBwTIjD2_veTdS-36" value="&lt;div style=&quot;margin-top: 0px; font-size: 11px;&quot;&gt;Users will login using a unique email. If the SIGN-UP button was pressed, the fields will switch to the signup fields, where they can enter their information&lt;/div&gt;" style="text;html=1;whiteSpace=wrap;overflow=hidden;rounded=0;glass=0;strokeColor=default;shadow=0;dashed=1;align=center;fontFamily=Lucida Console;spacing=5;movable=0;resizable=0;rotatable=0;deletable=0;editable=0;locked=1;connectable=0;" vertex="1" parent="1">
          <mxGeometry x="760" y="250" width="180" height="120" as="geometry" />
        </mxCell>
        <mxCell id="ouvQM5jBwTIjD2_veTdS-37" value="" style="endArrow=none;dashed=1;html=1;dashPattern=1 3;strokeWidth=2;rounded=0;movable=0;resizable=0;rotatable=0;deletable=0;editable=0;locked=1;connectable=0;" edge="1" parent="1">
          <mxGeometry width="50" height="50" relative="1" as="geometry">
            <mxPoint x="710" y="360" as="sourcePoint" />
            <mxPoint x="750" y="330" as="targetPoint" />
          </mxGeometry>
        </mxCell>
        <mxCell id="ouvQM5jBwTIjD2_veTdS-39" value="" style="strokeWidth=1;shadow=0;dashed=0;align=center;html=1;shape=mxgraph.mockup.containers.browserWindow;rSize=0;strokeColor=#666666;strokeColor2=#008cff;strokeColor3=#c4c4c4;mainText=,;recursiveResize=0;container=0;movable=0;resizable=0;rotatable=0;deletable=0;editable=0;locked=1;connectable=0;" vertex="1" parent="1">
          <mxGeometry x="40" y="1030" width="1040" height="814.55" as="geometry" />
        </mxCell>
        <mxCell id="ouvQM5jBwTIjD2_veTdS-40" value="Poker" style="strokeWidth=1;shadow=0;dashed=0;align=center;html=1;shape=mxgraph.mockup.containers.anchor;fontSize=17;fontColor=#666666;align=left;whiteSpace=wrap;movable=0;resizable=0;rotatable=0;deletable=0;editable=0;locked=1;connectable=0;" vertex="1" parent="1">
          <mxGeometry x="102" y="1044" width="110" height="26" as="geometry" />
        </mxCell>
        <mxCell id="ouvQM5jBwTIjD2_veTdS-41" value="localhost:3000/entry" style="strokeWidth=1;shadow=0;dashed=0;align=center;html=1;shape=mxgraph.mockup.containers.anchor;rSize=0;fontSize=17;fontColor=#666666;align=left;movable=0;resizable=0;rotatable=0;deletable=0;editable=0;locked=1;connectable=0;" vertex="1" parent="1">
          <mxGeometry x="170" y="1090" width="250" height="26" as="geometry" />
        </mxCell>
        <mxCell id="ouvQM5jBwTIjD2_veTdS-53" value="&lt;h1&gt;&lt;span style=&quot;font-size: 36px;&quot;&gt;Poker&lt;/span&gt;&lt;/h1&gt;&lt;div&gt;&lt;span style=&quot;font-size: 36px;&quot;&gt;by CodingBlocks&lt;/span&gt;&lt;/div&gt;" style="text;html=1;align=center;verticalAlign=middle;whiteSpace=wrap;rounded=0;movable=0;resizable=0;rotatable=0;deletable=0;editable=0;locked=1;connectable=0;" vertex="1" parent="1">
          <mxGeometry x="415" y="1175" width="290" height="120" as="geometry" />
        </mxCell>
        <mxCell id="ouvQM5jBwTIjD2_veTdS-66" value="&lt;div style=&quot;margin-top: 0px; font-size: 11px;&quot;&gt;User settings and profile view. This area provides quick access to their settings pop-up, it would also display friends online, current money, and other stats&lt;/div&gt;" style="text;html=1;whiteSpace=wrap;overflow=hidden;rounded=0;glass=0;strokeColor=default;shadow=0;dashed=1;align=center;fontFamily=Lucida Console;spacing=5;movable=0;resizable=0;rotatable=0;deletable=0;editable=0;locked=1;connectable=0;" vertex="1" parent="1">
          <mxGeometry x="112" y="1410" width="180" height="120" as="geometry" />
        </mxCell>
        <mxCell id="ouvQM5jBwTIjD2_veTdS-69" value="" style="verticalLabelPosition=bottom;shadow=0;dashed=0;align=center;html=1;verticalAlign=top;strokeWidth=1;shape=mxgraph.mockup.misc.progressBar;fillColor=#cccccc;strokeColor=none;fillColor2=#99ddff;barPos=80;movable=0;resizable=0;rotatable=0;deletable=0;editable=0;locked=1;connectable=0;" vertex="1" parent="1">
          <mxGeometry x="460" y="1740" width="200" height="20" as="geometry" />
        </mxCell>
        <mxCell id="ouvQM5jBwTIjD2_veTdS-70" value="Enter Friend Code" style="strokeWidth=1;shadow=0;dashed=0;align=center;html=1;shape=mxgraph.mockup.forms.searchBox;strokeColor=#999999;mainText=;strokeColor2=#008cff;fontColor=#666666;fontSize=17;align=left;spacingLeft=3;whiteSpace=wrap;movable=0;resizable=0;rotatable=0;deletable=0;editable=0;locked=1;connectable=0;" vertex="1" parent="1">
          <mxGeometry x="467.5" y="1370" width="185" height="30" as="geometry" />
        </mxCell>
        <mxCell id="ouvQM5jBwTIjD2_veTdS-72" value="" style="verticalLabelPosition=bottom;shadow=0;dashed=0;align=center;html=1;verticalAlign=top;strokeWidth=1;shape=mxgraph.mockup.markup.line;strokeColor=#999999;movable=0;resizable=0;rotatable=0;deletable=0;editable=0;locked=1;connectable=0;" vertex="1" parent="1">
          <mxGeometry x="70" y="1225" width="150" height="20" as="geometry" />
        </mxCell>
        <mxCell id="ouvQM5jBwTIjD2_veTdS-74" value="" style="image;aspect=fixed;html=1;points=[];align=center;fontSize=12;image=img/lib/azure2/identity/User_Settings.svg;movable=0;resizable=0;rotatable=0;deletable=0;editable=0;locked=1;connectable=0;" vertex="1" parent="1">
          <mxGeometry x="76.16" y="1195" width="35.84" height="30" as="geometry" />
        </mxCell>
        <mxCell id="ouvQM5jBwTIjD2_veTdS-75" value="johndoe" style="text;html=1;align=center;verticalAlign=middle;whiteSpace=wrap;rounded=0;fontSize=23;movable=0;resizable=0;rotatable=0;deletable=0;editable=0;locked=1;connectable=0;" vertex="1" parent="1">
          <mxGeometry x="120" y="1195" width="95" height="30" as="geometry" />
        </mxCell>
        <mxCell id="ouvQM5jBwTIjD2_veTdS-76" value="" style="swimlane;container=1;shape=mxgraph.bootstrap.rrect;rSize=5;strokeColor=#999999;fillColor=#ffffff;fontStyle=0;childLayout=stackLayout;horizontal=1;startSize=0;horizontalStack=0;resizeParent=1;resizeParentMax=0;resizeLast=0;collapsible=0;marginBottom=0;whiteSpace=wrap;html=1;marginTop=10;marginBottom=10;movable=0;resizable=0;rotatable=0;deletable=0;editable=0;locked=1;connectable=0;" vertex="1" parent="1">
          <mxGeometry x="70" y="1240" width="150" height="110" as="geometry" />
        </mxCell>
        <mxCell id="ouvQM5jBwTIjD2_veTdS-77" value="Funds: 300.00" style="text;align=left;verticalAlign=middle;spacingLeft=20;spacingRight=10;overflow=hidden;points=[[0,0.5],[1,0.5]];portConstraint=eastwest;rotatable=0;whiteSpace=wrap;html=1;fontColor=#757E85;fontSize=12;fontStyle=1;movable=0;resizable=0;deletable=0;editable=0;locked=1;connectable=0;" vertex="1" parent="ouvQM5jBwTIjD2_veTdS-76">
          <mxGeometry y="10" width="150" height="30" as="geometry" />
        </mxCell>
        <mxCell id="ouvQM5jBwTIjD2_veTdS-82" value="Friends Online(1)" style="text;align=left;verticalAlign=middle;spacingLeft=20;spacingRight=10;overflow=hidden;points=[[0,0.5],[1,0.5]];portConstraint=eastwest;rotatable=0;whiteSpace=wrap;html=1;fontColor=#757E85;fontSize=12;fontStyle=1;movable=0;resizable=0;deletable=0;editable=0;locked=1;connectable=0;" vertex="1" parent="ouvQM5jBwTIjD2_veTdS-76">
          <mxGeometry y="40" width="150" height="30" as="geometry" />
        </mxCell>
        <mxCell id="ouvQM5jBwTIjD2_veTdS-83" value="W/L: 0.25%" style="text;align=left;verticalAlign=middle;spacingLeft=20;spacingRight=10;overflow=hidden;points=[[0,0.5],[1,0.5]];portConstraint=eastwest;rotatable=0;whiteSpace=wrap;html=1;fontColor=#757E85;fontSize=12;fontStyle=1;movable=0;resizable=0;deletable=0;editable=0;locked=1;connectable=0;" vertex="1" parent="ouvQM5jBwTIjD2_veTdS-76">
          <mxGeometry y="70" width="150" height="30" as="geometry" />
        </mxCell>
        <mxCell id="ouvQM5jBwTIjD2_veTdS-80" value="" style="endArrow=none;dashed=1;html=1;dashPattern=1 3;strokeWidth=2;rounded=0;movable=0;resizable=0;rotatable=0;deletable=0;editable=0;locked=1;connectable=0;" edge="1" parent="1">
          <mxGeometry width="50" height="50" relative="1" as="geometry">
            <mxPoint x="240" y="1400" as="sourcePoint" />
            <mxPoint x="210" y="1360" as="targetPoint" />
          </mxGeometry>
        </mxCell>
        <mxCell id="ouvQM5jBwTIjD2_veTdS-85" value="PLAY" style="strokeWidth=1;shadow=0;dashed=0;align=center;html=1;shape=mxgraph.mockup.buttons.button;strokeColor=#666666;fontColor=#ffffff;mainText=;buttonStyle=round;fontSize=17;fontStyle=1;fillColor=#008cff;whiteSpace=wrap;movable=0;resizable=0;rotatable=0;deletable=0;editable=0;locked=1;connectable=0;" vertex="1" parent="1">
          <mxGeometry x="485" y="1430" width="150" height="50" as="geometry" />
        </mxCell>
        <mxCell id="ouvQM5jBwTIjD2_veTdS-86" value="&lt;div style=&quot;margin-top: 0px; font-size: 11px;&quot;&gt;Our game allows users to enter a friend code which is supplied by the host of the game. Users can directly connect using that code, if no code is supplied a random game will be chosen.&lt;/div&gt;" style="text;html=1;whiteSpace=wrap;overflow=hidden;rounded=0;glass=0;strokeColor=default;shadow=0;dashed=1;align=center;fontFamily=Lucida Console;spacing=5;movable=0;resizable=0;rotatable=0;deletable=0;editable=0;locked=1;connectable=0;" vertex="1" parent="1">
          <mxGeometry x="800" y="1360" width="180" height="120" as="geometry" />
        </mxCell>
        <mxCell id="ouvQM5jBwTIjD2_veTdS-87" value="" style="endArrow=none;dashed=1;html=1;dashPattern=1 3;strokeWidth=2;rounded=0;movable=0;resizable=0;rotatable=0;deletable=0;editable=0;locked=1;connectable=0;" edge="1" parent="1">
          <mxGeometry width="50" height="50" relative="1" as="geometry">
            <mxPoint x="780" y="1380" as="sourcePoint" />
            <mxPoint x="675" y="1380" as="targetPoint" />
          </mxGeometry>
        </mxCell>
        <mxCell id="ouvQM5jBwTIjD2_veTdS-88" value="CREATE" style="strokeWidth=1;shadow=0;dashed=0;align=center;html=1;shape=mxgraph.mockup.buttons.button;strokeColor=#666666;fontColor=#ffffff;mainText=;buttonStyle=round;fontSize=17;fontStyle=1;fillColor=#008cff;whiteSpace=wrap;movable=0;resizable=0;rotatable=0;deletable=0;editable=0;locked=1;connectable=0;" vertex="1" parent="1">
          <mxGeometry x="485" y="1650" width="150" height="50" as="geometry" />
        </mxCell>
        <mxCell id="ouvQM5jBwTIjD2_veTdS-89" value="Private?" style="shape=ellipse;fillColor=#eeeeee;strokeColor=#999999;gradientColor=#cccccc;html=1;align=left;spacingLeft=4;fontSize=17;fontColor=#666666;labelPosition=right;shadow=0;movable=0;resizable=0;rotatable=0;deletable=0;editable=0;locked=1;connectable=0;" vertex="1" parent="1">
          <mxGeometry x="520" y="1610" width="15" height="15" as="geometry" />
        </mxCell>
        <mxCell id="ouvQM5jBwTIjD2_veTdS-91" value="" style="endArrow=none;dashed=1;html=1;dashPattern=1 3;strokeWidth=2;rounded=0;movable=0;resizable=0;rotatable=0;deletable=0;editable=0;locked=1;connectable=0;" edge="1" parent="1">
          <mxGeometry width="50" height="50" relative="1" as="geometry">
            <mxPoint x="770" y="1625" as="sourcePoint" />
            <mxPoint x="665" y="1625" as="targetPoint" />
          </mxGeometry>
        </mxCell>
        <mxCell id="ouvQM5jBwTIjD2_veTdS-92" value="&lt;div style=&quot;margin-top: 0px; font-size: 11px;&quot;&gt;For users who want to create their own game, they can set it to private, this prevents random people from joining and can only join through an friend code.&lt;/div&gt;" style="text;html=1;whiteSpace=wrap;overflow=hidden;rounded=0;glass=0;strokeColor=default;shadow=0;dashed=1;align=center;fontFamily=Lucida Console;spacing=5;movable=0;resizable=0;rotatable=0;deletable=0;editable=0;locked=1;connectable=0;" vertex="1" parent="1">
          <mxGeometry x="790" y="1610" width="180" height="120" as="geometry" />
        </mxCell>
        <mxCell id="ouvQM5jBwTIjD2_veTdS-93" value="" style="endArrow=none;dashed=1;html=1;dashPattern=1 3;strokeWidth=2;rounded=0;movable=0;resizable=0;rotatable=0;deletable=0;editable=0;locked=1;connectable=0;" edge="1" parent="1">
          <mxGeometry width="50" height="50" relative="1" as="geometry">
            <mxPoint x="440" y="1749.5" as="sourcePoint" />
            <mxPoint x="335" y="1749.5" as="targetPoint" />
          </mxGeometry>
        </mxCell>
        <mxCell id="ouvQM5jBwTIjD2_veTdS-94" value="&lt;div style=&quot;margin-top: 0px; font-size: 11px;&quot;&gt;Loading bar is re-used for both playing and creating a game. This will trigger to indicate that the request has been recieved and is attempting to join/create the game.&lt;/div&gt;" style="text;html=1;whiteSpace=wrap;overflow=hidden;rounded=0;glass=0;strokeColor=default;shadow=0;dashed=1;align=center;fontFamily=Lucida Console;spacing=5;movable=0;resizable=0;rotatable=0;deletable=0;editable=0;locked=1;connectable=0;" vertex="1" parent="1">
          <mxGeometry x="120" y="1670" width="180" height="120" as="geometry" />
        </mxCell>
        <mxCell id="ouvQM5jBwTIjD2_veTdS-95" value="" style="strokeWidth=1;shadow=0;dashed=0;align=center;html=1;shape=mxgraph.mockup.containers.browserWindow;rSize=0;strokeColor=#666666;strokeColor2=#008cff;strokeColor3=#c4c4c4;mainText=,;recursiveResize=0;container=0;movable=1;resizable=1;rotatable=1;deletable=1;editable=1;locked=0;connectable=1;" vertex="1" parent="1">
          <mxGeometry x="40" y="1940" width="1040" height="814.55" as="geometry" />
        </mxCell>
        <mxCell id="ouvQM5jBwTIjD2_veTdS-96" value="Poker" style="strokeWidth=1;shadow=0;dashed=0;align=center;html=1;shape=mxgraph.mockup.containers.anchor;fontSize=17;fontColor=#666666;align=left;whiteSpace=wrap;" vertex="1" parent="1">
          <mxGeometry x="102" y="1954" width="110" height="26" as="geometry" />
        </mxCell>
        <mxCell id="ouvQM5jBwTIjD2_veTdS-97" value="localhost:3000/game?=39fdsa" style="strokeWidth=1;shadow=0;dashed=0;align=center;html=1;shape=mxgraph.mockup.containers.anchor;rSize=0;fontSize=17;fontColor=#666666;align=left;" vertex="1" parent="1">
          <mxGeometry x="170" y="2000" width="250" height="26" as="geometry" />
        </mxCell>
        <mxCell id="ouvQM5jBwTIjD2_veTdS-98" value="&lt;h1 style=&quot;font-size: 11px;&quot;&gt;&lt;span style=&quot;font-size: 11px;&quot;&gt;Poker&lt;/span&gt;&lt;/h1&gt;&lt;div style=&quot;font-size: 11px;&quot;&gt;&lt;span style=&quot;font-size: 11px;&quot;&gt;by CodingBlocks&lt;/span&gt;&lt;/div&gt;" style="text;html=1;align=center;verticalAlign=middle;whiteSpace=wrap;rounded=0;fontSize=11;labelPosition=center;verticalLabelPosition=middle;labelBorderColor=none;textShadow=0;labelBackgroundColor=none;" vertex="1" parent="1">
          <mxGeometry x="91.58" y="2060" width="103" height="25" as="geometry" />
        </mxCell>
        <mxCell id="ouvQM5jBwTIjD2_veTdS-102" value="" style="verticalLabelPosition=bottom;shadow=0;dashed=0;align=center;html=1;verticalAlign=top;strokeWidth=1;shape=mxgraph.mockup.markup.line;strokeColor=#999999;" vertex="1" parent="1">
          <mxGeometry x="70" y="2135" width="150" height="20" as="geometry" />
        </mxCell>
        <mxCell id="ouvQM5jBwTIjD2_veTdS-103" value="" style="image;aspect=fixed;html=1;points=[];align=center;fontSize=12;image=img/lib/azure2/identity/User_Settings.svg;" vertex="1" parent="1">
          <mxGeometry x="76.16" y="2105" width="35.84" height="30" as="geometry" />
        </mxCell>
        <mxCell id="ouvQM5jBwTIjD2_veTdS-104" value="johndoe" style="text;html=1;align=center;verticalAlign=middle;whiteSpace=wrap;rounded=0;fontSize=23;" vertex="1" parent="1">
          <mxGeometry x="120" y="2105" width="95" height="30" as="geometry" />
        </mxCell>
        <mxCell id="ouvQM5jBwTIjD2_veTdS-105" value="" style="swimlane;container=1;shape=mxgraph.bootstrap.rrect;rSize=5;strokeColor=#999999;fillColor=#ffffff;fontStyle=0;childLayout=stackLayout;horizontal=1;startSize=0;horizontalStack=0;resizeParent=1;resizeParentMax=0;resizeLast=0;collapsible=0;marginBottom=0;whiteSpace=wrap;html=1;marginTop=10;marginBottom=10;" vertex="1" parent="1">
          <mxGeometry x="70" y="2150" width="150" height="110" as="geometry" />
        </mxCell>
        <mxCell id="ouvQM5jBwTIjD2_veTdS-106" value="Funds: 300.00" style="text;align=left;verticalAlign=middle;spacingLeft=20;spacingRight=10;overflow=hidden;points=[[0,0.5],[1,0.5]];portConstraint=eastwest;rotatable=0;whiteSpace=wrap;html=1;fontColor=#757E85;fontSize=12;fontStyle=1;" vertex="1" parent="ouvQM5jBwTIjD2_veTdS-105">
          <mxGeometry y="10" width="150" height="30" as="geometry" />
        </mxCell>
        <mxCell id="ouvQM5jBwTIjD2_veTdS-107" value="Friends Online(1)" style="text;align=left;verticalAlign=middle;spacingLeft=20;spacingRight=10;overflow=hidden;points=[[0,0.5],[1,0.5]];portConstraint=eastwest;rotatable=0;whiteSpace=wrap;html=1;fontColor=#757E85;fontSize=12;fontStyle=1;" vertex="1" parent="ouvQM5jBwTIjD2_veTdS-105">
          <mxGeometry y="40" width="150" height="30" as="geometry" />
        </mxCell>
        <mxCell id="ouvQM5jBwTIjD2_veTdS-108" value="W/L: 0.25%" style="text;align=left;verticalAlign=middle;spacingLeft=20;spacingRight=10;overflow=hidden;points=[[0,0.5],[1,0.5]];portConstraint=eastwest;rotatable=0;whiteSpace=wrap;html=1;fontColor=#757E85;fontSize=12;fontStyle=1;" vertex="1" parent="ouvQM5jBwTIjD2_veTdS-105">
          <mxGeometry y="70" width="150" height="30" as="geometry" />
        </mxCell>
        <mxCell id="ouvQM5jBwTIjD2_veTdS-112" value="" style="endArrow=none;dashed=1;html=1;dashPattern=1 3;strokeWidth=2;rounded=0;" edge="1" parent="1">
          <mxGeometry width="50" height="50" relative="1" as="geometry">
            <mxPoint x="160" y="2540" as="sourcePoint" />
            <mxPoint x="160" y="2580" as="targetPoint" />
          </mxGeometry>
        </mxCell>
        <mxCell id="ouvQM5jBwTIjD2_veTdS-113" value="LEAVE" style="strokeWidth=1;shadow=0;dashed=0;align=center;html=1;shape=mxgraph.mockup.buttons.button;strokeColor=#666666;fontColor=#ffffff;mainText=;buttonStyle=round;fontSize=17;fontStyle=1;fillColor=#008cff;whiteSpace=wrap;" vertex="1" parent="1">
          <mxGeometry x="106.08000000000015" y="2274.86" width="77.84" height="35" as="geometry" />
        </mxCell>
        <mxCell id="ouvQM5jBwTIjD2_veTdS-116" value="&lt;div style=&quot;margin-top: 0px; font-size: 11px;&quot;&gt;Real Time Chat can be minimized to avoid distractions&lt;/div&gt;" style="text;html=1;whiteSpace=wrap;overflow=hidden;rounded=0;glass=0;strokeColor=default;shadow=0;dashed=1;align=center;fontFamily=Lucida Console;spacing=5;" vertex="1" parent="1">
          <mxGeometry x="76.16" y="2450" width="120" height="80" as="geometry" />
        </mxCell>
        <mxCell id="ouvQM5jBwTIjD2_veTdS-123" value="&lt;table cellpadding=&quot;0&quot; cellspacing=&quot;0&quot; style=&quot;width:100%;height:100%;&quot;&gt;&lt;tr&gt;&lt;td style=&quot;width:85%&quot;&gt;100&lt;/td&gt;&lt;td style=&quot;width:15%&quot;&gt;&lt;/td&gt;&lt;/tr&gt;&lt;/table&gt;" style="strokeWidth=1;shadow=0;dashed=0;align=center;html=1;shape=mxgraph.mockup.forms.spinner;strokeColor=#999999;spinLayout=right;spinStyle=normal;adjStyle=triangle;fillColor=#aaddff;fontSize=17;fontColor=#666666;mainText=;html=1;overflow=fill;" vertex="1" parent="1">
          <mxGeometry x="310" y="2503.75" width="95" height="30" as="geometry" />
        </mxCell>
        <mxCell id="ouvQM5jBwTIjD2_veTdS-125" value="GAME SCREEN" style="html=1;shadow=0;dashed=0;shape=mxgraph.bootstrap.rrect;rSize=5;strokeColor=none;strokeWidth=1;fillColor=#FFBC26;fontColor=#000000;whiteSpace=wrap;align=center;verticalAlign=middle;spacingLeft=0;fontStyle=1;fontSize=14;spacing=5;" vertex="1" parent="1">
          <mxGeometry x="499" y="1954" width="122" height="20" as="geometry" />
        </mxCell>
        <mxCell id="ouvQM5jBwTIjD2_veTdS-126" value="MAIN MENU" style="html=1;shadow=0;dashed=0;shape=mxgraph.bootstrap.rrect;rSize=5;strokeColor=none;strokeWidth=1;fillColor=#FFBC26;fontColor=#000000;whiteSpace=wrap;align=center;verticalAlign=middle;spacingLeft=0;fontStyle=1;fontSize=14;spacing=5;" vertex="1" parent="1">
          <mxGeometry x="499" y="1044" width="122" height="20" as="geometry" />
        </mxCell>
        <mxCell id="ouvQM5jBwTIjD2_veTdS-127" value="LOGIN SCREEN" style="html=1;shadow=0;dashed=0;shape=mxgraph.bootstrap.rrect;rSize=5;strokeColor=none;strokeWidth=1;fillColor=#FFBC26;fontColor=#000000;whiteSpace=wrap;align=center;verticalAlign=middle;spacingLeft=0;fontStyle=1;fontSize=14;spacing=5;" vertex="1" parent="1">
          <mxGeometry x="499" y="14" width="122" height="20" as="geometry" />
        </mxCell>
        <mxCell id="ouvQM5jBwTIjD2_veTdS-128" value="Amount" style="text;html=1;align=center;verticalAlign=middle;whiteSpace=wrap;rounded=0;fontStyle=1" vertex="1" parent="1">
          <mxGeometry x="317.5" y="2473.75" width="80" height="30" as="geometry" />
        </mxCell>
        <mxCell id="ouvQM5jBwTIjD2_veTdS-132" value="" style="whiteSpace=wrap;html=1;rounded=1;gradientColor=none;gradientDirection=north;fillStyle=cross-hatch;fillColor=#FFCC99;" vertex="1" parent="1">
          <mxGeometry x="600" y="2130" width="90" height="135" as="geometry" />
        </mxCell>
        <mxCell id="ouvQM5jBwTIjD2_veTdS-133" value="" style="whiteSpace=wrap;html=1;rounded=1;gradientColor=none;gradientDirection=north;fillStyle=cross-hatch;fillColor=#FFCC99;" vertex="1" parent="1">
          <mxGeometry x="700" y="2130" width="90" height="135" as="geometry" />
        </mxCell>
        <mxCell id="ouvQM5jBwTIjD2_veTdS-135" value="" style="group;verticalAlign=middle;" vertex="1" connectable="0" parent="1">
          <mxGeometry x="300" y="2130" width="90" height="135" as="geometry" />
        </mxCell>
        <mxCell id="ouvQM5jBwTIjD2_veTdS-129" value="" style="whiteSpace=wrap;html=1;rounded=1;gradientColor=none;gradientDirection=north;fillStyle=auto;fillColor=#FFCC99;" vertex="1" parent="ouvQM5jBwTIjD2_veTdS-135">
          <mxGeometry width="90" height="135" as="geometry" />
        </mxCell>
        <mxCell id="ouvQM5jBwTIjD2_veTdS-134" value="K" style="text;html=1;align=center;verticalAlign=middle;whiteSpace=wrap;rounded=0;fontSize=36;" vertex="1" parent="ouvQM5jBwTIjD2_veTdS-135">
          <mxGeometry x="10" y="7.5" width="70" height="120" as="geometry" />
        </mxCell>
        <mxCell id="ouvQM5jBwTIjD2_veTdS-136" value="" style="group;verticalAlign=middle;" vertex="1" connectable="0" parent="1">
          <mxGeometry x="400" y="2130" width="90" height="135" as="geometry" />
        </mxCell>
        <mxCell id="ouvQM5jBwTIjD2_veTdS-137" value="" style="whiteSpace=wrap;html=1;rounded=1;gradientColor=none;gradientDirection=north;fillStyle=auto;fillColor=#FFCC99;" vertex="1" parent="ouvQM5jBwTIjD2_veTdS-136">
          <mxGeometry width="90" height="135" as="geometry" />
        </mxCell>
        <mxCell id="ouvQM5jBwTIjD2_veTdS-138" value="Q" style="text;html=1;align=center;verticalAlign=middle;whiteSpace=wrap;rounded=0;fontSize=36;" vertex="1" parent="ouvQM5jBwTIjD2_veTdS-136">
          <mxGeometry x="10" y="7.5" width="70" height="120" as="geometry" />
        </mxCell>
        <mxCell id="ouvQM5jBwTIjD2_veTdS-139" value="" style="group;verticalAlign=middle;" vertex="1" connectable="0" parent="1">
          <mxGeometry x="499" y="2130" width="90" height="135" as="geometry" />
        </mxCell>
        <mxCell id="ouvQM5jBwTIjD2_veTdS-140" value="" style="whiteSpace=wrap;html=1;rounded=1;gradientColor=none;gradientDirection=north;fillStyle=auto;fillColor=#FFCC99;" vertex="1" parent="ouvQM5jBwTIjD2_veTdS-139">
          <mxGeometry width="90" height="135" as="geometry" />
        </mxCell>
        <mxCell id="ouvQM5jBwTIjD2_veTdS-141" value="A" style="text;html=1;align=center;verticalAlign=middle;whiteSpace=wrap;rounded=0;fontSize=36;" vertex="1" parent="ouvQM5jBwTIjD2_veTdS-139">
          <mxGeometry x="10" y="7.5" width="70" height="120" as="geometry" />
        </mxCell>
        <mxCell id="ouvQM5jBwTIjD2_veTdS-142" value="BET" style="strokeWidth=1;shadow=0;dashed=0;align=center;html=1;shape=mxgraph.mockup.buttons.button;strokeColor=#2D7600;fontColor=#ffffff;mainText=;buttonStyle=round;fontSize=17;fontStyle=1;fillColor=#60a917;whiteSpace=wrap;" vertex="1" parent="1">
          <mxGeometry x="370" y="2570" width="81.84" height="50" as="geometry" />
        </mxCell>
        <mxCell id="ouvQM5jBwTIjD2_veTdS-143" value="RAISE" style="strokeWidth=1;shadow=0;dashed=0;align=center;html=1;shape=mxgraph.mockup.buttons.button;strokeColor=#3700CC;fontColor=#ffffff;mainText=;buttonStyle=round;fontSize=17;fontStyle=1;fillColor=#6a00ff;whiteSpace=wrap;" vertex="1" parent="1">
          <mxGeometry x="577.84" y="2570" width="81.84" height="50" as="geometry" />
        </mxCell>
        <mxCell id="ouvQM5jBwTIjD2_veTdS-144" value="CALL" style="strokeWidth=1;shadow=0;dashed=0;align=center;html=1;shape=mxgraph.mockup.buttons.button;strokeColor=#006EAF;fontColor=#ffffff;mainText=;buttonStyle=round;fontSize=17;fontStyle=1;fillColor=#1ba1e2;whiteSpace=wrap;" vertex="1" parent="1">
          <mxGeometry x="473.84" y="2570" width="81.84" height="50" as="geometry" />
        </mxCell>
        <mxCell id="ouvQM5jBwTIjD2_veTdS-145" value="FOLD" style="strokeWidth=1;shadow=0;dashed=0;align=center;html=1;shape=mxgraph.mockup.buttons.button;strokeColor=#666666;fontColor=#ffffff;mainText=;buttonStyle=round;fontSize=17;fontStyle=1;fillColor=#FF9999;whiteSpace=wrap;" vertex="1" parent="1">
          <mxGeometry x="681.84" y="2570" width="81.84" height="50" as="geometry" />
        </mxCell>
        <mxCell id="ouvQM5jBwTIjD2_veTdS-149" value="" style="group;verticalAlign=middle;" vertex="1" connectable="0" parent="1">
          <mxGeometry x="480" y="2370" width="90" height="135" as="geometry" />
        </mxCell>
        <mxCell id="ouvQM5jBwTIjD2_veTdS-150" value="" style="whiteSpace=wrap;html=1;rounded=1;gradientColor=none;gradientDirection=north;fillStyle=auto;fillColor=#FFCC99;" vertex="1" parent="ouvQM5jBwTIjD2_veTdS-149">
          <mxGeometry width="90" height="135" as="geometry" />
        </mxCell>
        <mxCell id="ouvQM5jBwTIjD2_veTdS-151" value="K" style="text;html=1;align=center;verticalAlign=middle;whiteSpace=wrap;rounded=0;fontSize=36;" vertex="1" parent="ouvQM5jBwTIjD2_veTdS-149">
          <mxGeometry x="10" y="7.5" width="70" height="120" as="geometry" />
        </mxCell>
        <mxCell id="ouvQM5jBwTIjD2_veTdS-152" value="YOUR HAND" style="text;html=1;align=center;verticalAlign=middle;whiteSpace=wrap;rounded=0;fontStyle=1" vertex="1" parent="1">
          <mxGeometry x="520" y="2520" width="90" height="30" as="geometry" />
        </mxCell>
        <mxCell id="ouvQM5jBwTIjD2_veTdS-153" value="" style="group;verticalAlign=middle;" vertex="1" connectable="0" parent="1">
          <mxGeometry x="580" y="2370" width="90" height="135" as="geometry" />
        </mxCell>
        <mxCell id="ouvQM5jBwTIjD2_veTdS-154" value="" style="whiteSpace=wrap;html=1;rounded=1;gradientColor=none;gradientDirection=north;fillStyle=auto;fillColor=#FFCC99;" vertex="1" parent="ouvQM5jBwTIjD2_veTdS-153">
          <mxGeometry width="90" height="135" as="geometry" />
        </mxCell>
        <mxCell id="ouvQM5jBwTIjD2_veTdS-155" value="K" style="text;html=1;align=center;verticalAlign=middle;whiteSpace=wrap;rounded=0;fontSize=36;" vertex="1" parent="ouvQM5jBwTIjD2_veTdS-153">
          <mxGeometry x="10" y="7.5" width="70" height="120" as="geometry" />
        </mxCell>
        <mxCell id="ouvQM5jBwTIjD2_veTdS-156" value="" style="sketch=0;pointerEvents=1;shadow=0;dashed=0;html=1;strokeColor=none;labelPosition=center;verticalLabelPosition=bottom;verticalAlign=top;align=center;fillColor=#505050;shape=mxgraph.mscae.intune.user_group" vertex="1" parent="1">
          <mxGeometry x="942.5" y="2126.5" width="50" height="37" as="geometry" />
        </mxCell>
        <mxCell id="ouvQM5jBwTIjD2_veTdS-168" value="Current Bet:" style="text;html=1;align=left;verticalAlign=middle;whiteSpace=wrap;rounded=0;fontStyle=1" vertex="1" parent="1">
          <mxGeometry x="300" y="2288.44" width="75" height="30" as="geometry" />
        </mxCell>
        <mxCell id="ouvQM5jBwTIjD2_veTdS-171" value="1000" style="html=1;shadow=0;dashed=0;shape=mxgraph.bootstrap.rrect;rSize=5;strokeColor=none;strokeWidth=1;fillColor=#E0F0D6;fontColor=#59B958;whiteSpace=wrap;align=left;verticalAlign=middle;spacingLeft=10;fontSize=16;fontStyle=1" vertex="1" parent="1">
          <mxGeometry x="300" y="2317.72" width="110" height="40" as="geometry" />
        </mxCell>
        <mxCell id="ouvQM5jBwTIjD2_veTdS-172" value="testplayer1&#39;s hand&lt;span style=&quot;color: rgba(0, 0, 0, 0); font-family: monospace; font-size: 0px; font-weight: 400; text-align: start; text-wrap: nowrap;&quot;&gt;%3CmxGraphModel%3E%3Croot%3E%3CmxCell%20id%3D%220%22%2F%3E%3CmxCell%20id%3D%221%22%20parent%3D%220%22%2F%3E%3CmxCell%20id%3D%222%22%20value%3D%22YOUR%20HAND%22%20style%3D%22text%3Bhtml%3D1%3Balign%3Dcenter%3BverticalAlign%3Dmiddle%3BwhiteSpace%3Dwrap%3Brounded%3D0%3BfontStyle%3D1%22%20vertex%3D%221%22%20parent%3D%221%22%3E%3CmxGeometry%20x%3D%22400%22%20y%3D%222660%22%20width%3D%2290%22%20height%3D%2230%22%20as%3D%22geometry%22%2F%3E%3C%2FmxCell%3E%3C%2Froot%3E%3C%2FmxGraphModel%3E&lt;/span&gt;" style="text;html=1;align=center;verticalAlign=middle;whiteSpace=wrap;rounded=0;fontStyle=1" vertex="1" parent="1">
          <mxGeometry x="830" y="2193" width="70" height="40" as="geometry" />
        </mxCell>
        <mxCell id="ouvQM5jBwTIjD2_veTdS-173" value="testplayer2&#39;s hand&lt;span style=&quot;color: rgba(0, 0, 0, 0); font-family: monospace; font-size: 0px; font-weight: 400; text-align: start; text-wrap: nowrap;&quot;&gt;%3CmxGraphModel%3E%3Croot%3E%3CmxCell%20id%3D%220%22%2F%3E%3CmxCell%20id%3D%221%22%20parent%3D%220%22%2F%3E%3CmxCell%20id%3D%222%22%20value%3D%22YOUR%20HAND%22%20style%3D%22text%3Bhtml%3D1%3Balign%3Dcenter%3BverticalAlign%3Dmiddle%3BwhiteSpace%3Dwrap%3Brounded%3D0%3BfontStyle%3D1%22%20vertex%3D%221%22%20parent%3D%221%22%3E%3CmxGeometry%20x%3D%22400%22%20y%3D%222660%22%20width%3D%2290%22%20height%3D%2230%22%20as%3D%22geometry%22%2F%3E%3C%2FmxCell%3E%3C%2Froot%3E%3C%2FmxGraphModel%3E&lt;/span&gt;" style="text;html=1;align=center;verticalAlign=middle;whiteSpace=wrap;rounded=0;fontStyle=1" vertex="1" parent="1">
          <mxGeometry x="830" y="2288.44" width="70" height="45" as="geometry" />
        </mxCell>
        <mxCell id="ouvQM5jBwTIjD2_veTdS-174" value="&lt;font style=&quot;font-size: 13px;&quot;&gt;CALLED&lt;/font&gt;" style="strokeWidth=1;shadow=0;dashed=0;align=center;html=1;shape=mxgraph.mockup.buttons.button;strokeColor=#006EAF;fontColor=#ffffff;mainText=;buttonStyle=round;fontSize=17;fontStyle=1;fillColor=#1ba1e2;whiteSpace=wrap;" vertex="1" parent="1">
          <mxGeometry x="829" y="2240.72" width="71" height="24.28" as="geometry" />
        </mxCell>
        <mxCell id="ouvQM5jBwTIjD2_veTdS-176" value="&lt;span style=&quot;font-size: 13px;&quot;&gt;FOLDED&lt;/span&gt;" style="strokeWidth=1;shadow=0;dashed=0;align=center;html=1;shape=mxgraph.mockup.buttons.button;strokeColor=#006EAF;fontColor=#ffffff;mainText=;buttonStyle=round;fontSize=17;fontStyle=1;fillColor=#ff9999;whiteSpace=wrap;" vertex="1" parent="1">
          <mxGeometry x="829.75" y="2333.4399999999996" width="70.5" height="24.28" as="geometry" />
        </mxCell>
        <mxCell id="ouvQM5jBwTIjD2_veTdS-189" value="" style="group" vertex="1" connectable="0" parent="1">
          <mxGeometry x="910" y="2187" width="120.2" height="183" as="geometry" />
        </mxCell>
        <mxCell id="ouvQM5jBwTIjD2_veTdS-165" value="" style="group" vertex="1" connectable="0" parent="ouvQM5jBwTIjD2_veTdS-189">
          <mxGeometry width="120.20000000000002" height="85.4" as="geometry" />
        </mxCell>
        <mxCell id="ouvQM5jBwTIjD2_veTdS-163" value="" style="whiteSpace=wrap;html=1;rounded=1;gradientColor=none;gradientDirection=north;fillStyle=cross-hatch;fillColor=#FFCC99;" vertex="1" parent="ouvQM5jBwTIjD2_veTdS-165">
          <mxGeometry width="56.936842105263175" height="85.4" as="geometry" />
        </mxCell>
        <mxCell id="ouvQM5jBwTIjD2_veTdS-164" value="" style="whiteSpace=wrap;html=1;rounded=1;gradientColor=none;gradientDirection=north;fillStyle=cross-hatch;fillColor=#FFCC99;" vertex="1" parent="ouvQM5jBwTIjD2_veTdS-165">
          <mxGeometry x="63.26315789473686" width="56.936842105263175" height="85.4" as="geometry" />
        </mxCell>
        <mxCell id="ouvQM5jBwTIjD2_veTdS-166" value="" style="whiteSpace=wrap;html=1;rounded=1;gradientColor=none;gradientDirection=north;fillStyle=auto;fillColor=#FFCC99;" vertex="1" parent="ouvQM5jBwTIjD2_veTdS-189">
          <mxGeometry y="97.60000000000001" width="56.936842105263175" height="85.4" as="geometry" />
        </mxCell>
        <mxCell id="ouvQM5jBwTIjD2_veTdS-167" value="" style="whiteSpace=wrap;html=1;rounded=1;gradientColor=none;gradientDirection=north;fillStyle=auto;fillColor=#FFCC99;" vertex="1" parent="ouvQM5jBwTIjD2_veTdS-189">
          <mxGeometry x="63.263157894736835" y="97.60000000000001" width="56.936842105263175" height="85.4" as="geometry" />
        </mxCell>
        <mxCell id="ouvQM5jBwTIjD2_veTdS-180" value="2" style="text;html=1;align=center;verticalAlign=middle;whiteSpace=wrap;rounded=0;fontSize=36;" vertex="1" parent="ouvQM5jBwTIjD2_veTdS-189">
          <mxGeometry x="9.858059277304152" y="107.1891999999996" width="37.21173365814049" height="66.22160000000001" as="geometry" />
        </mxCell>
        <mxCell id="ouvQM5jBwTIjD2_veTdS-181" value="1" style="text;html=1;align=center;verticalAlign=middle;whiteSpace=wrap;rounded=0;fontSize=36;" vertex="1" parent="ouvQM5jBwTIjD2_veTdS-189">
          <mxGeometry x="73.1302070645555" y="107.1891999999996" width="37.21173365814049" height="66.22160000000001" as="geometry" />
        </mxCell>
        <mxCell id="ouvQM5jBwTIjD2_veTdS-199" value="" style="swimlane;fontStyle=0;childLayout=stackLayout;horizontal=1;startSize=0;horizontalStack=0;resizeParent=1;resizeParentMax=0;resizeLast=0;collapsible=0;marginBottom=0;whiteSpace=wrap;html=1;strokeColor=none;fillColor=none;" vertex="1" parent="1">
          <mxGeometry x="50" y="2590" width="200" height="150" as="geometry" />
        </mxCell>
        <mxCell id="ouvQM5jBwTIjD2_veTdS-200" value="Chat" style="text;strokeColor=none;fillColor=#0085FC;align=left;verticalAlign=middle;spacingLeft=10;spacingRight=10;overflow=hidden;points=[[0,0.5],[1,0.5]];portConstraint=eastwest;rotatable=0;whiteSpace=wrap;html=1;shape=mxgraph.bootstrap.topButton;rSize=5;fontColor=#ffffff;" vertex="1" parent="ouvQM5jBwTIjD2_veTdS-199">
          <mxGeometry width="200" height="30" as="geometry" />
        </mxCell>
        <mxCell id="ouvQM5jBwTIjD2_veTdS-201" value="johndoe: who" style="text;strokeColor=#DFDFDF;fillColor=#FFFFFF;align=left;verticalAlign=middle;spacingLeft=10;spacingRight=10;overflow=hidden;points=[[0,0.5],[1,0.5]];portConstraint=eastwest;rotatable=0;whiteSpace=wrap;html=1;rSize=5;fontColor=#000000;" vertex="1" parent="ouvQM5jBwTIjD2_veTdS-199">
          <mxGeometry y="30" width="200" height="30" as="geometry" />
        </mxCell>
        <mxCell id="ouvQM5jBwTIjD2_veTdS-202" value="testplayer1: yes" style="text;strokeColor=#DFDFDF;fillColor=#FFFFFF;align=left;verticalAlign=middle;spacingLeft=10;spacingRight=10;overflow=hidden;points=[[0,0.5],[1,0.5]];portConstraint=eastwest;rotatable=0;whiteSpace=wrap;html=1;rSize=5;fontColor=#000000;" vertex="1" parent="ouvQM5jBwTIjD2_veTdS-199">
          <mxGeometry y="60" width="200" height="30" as="geometry" />
        </mxCell>
        <mxCell id="ouvQM5jBwTIjD2_veTdS-203" value="testplayer2: i quit" style="text;strokeColor=#DFDFDF;fillColor=#FFFFFF;align=left;verticalAlign=middle;spacingLeft=10;spacingRight=10;overflow=hidden;points=[[0,0.5],[1,0.5]];portConstraint=eastwest;rotatable=0;whiteSpace=wrap;html=1;rSize=5;fontColor=#000000;" vertex="1" parent="ouvQM5jBwTIjD2_veTdS-199">
          <mxGeometry y="90" width="200" height="30" as="geometry" />
        </mxCell>
        <mxCell id="ouvQM5jBwTIjD2_veTdS-204" value="Chat:" style="text;strokeColor=#DFDFDF;fillColor=#FFFFFF;align=left;verticalAlign=middle;spacingLeft=10;spacingRight=10;overflow=hidden;points=[[0,0.5],[1,0.5]];portConstraint=eastwest;rotatable=0;whiteSpace=wrap;html=1;shape=mxgraph.bootstrap.bottomButton;rSize=5;fontColor=#000000;" vertex="1" parent="ouvQM5jBwTIjD2_veTdS-199">
          <mxGeometry y="120" width="200" height="30" as="geometry" />
        </mxCell>
        <mxCell id="ouvQM5jBwTIjD2_veTdS-205" value="&lt;div style=&quot;margin-top: 0px; font-size: 11px;&quot;&gt;This section displays other player&#39;s cards. Note that their cards will only be flipped if they choose to show them when they fold or when they manually show cards.&lt;/div&gt;" style="text;html=1;whiteSpace=wrap;overflow=hidden;rounded=0;glass=0;strokeColor=default;shadow=0;dashed=1;align=center;fontFamily=Lucida Console;spacing=5;" vertex="1" parent="1">
          <mxGeometry x="870" y="2445" width="180" height="117.5" as="geometry" />
        </mxCell>
        <mxCell id="ouvQM5jBwTIjD2_veTdS-206" value="" style="endArrow=none;dashed=1;html=1;dashPattern=1 3;strokeWidth=2;rounded=0;" edge="1" parent="1">
          <mxGeometry width="50" height="50" relative="1" as="geometry">
            <mxPoint x="940" y="2390" as="sourcePoint" />
            <mxPoint x="940" y="2430" as="targetPoint" />
          </mxGeometry>
        </mxCell>
        <mxCell id="ouvQM5jBwTIjD2_veTdS-207" value="SHOW HAND" style="strokeWidth=1;shadow=0;dashed=0;align=center;html=1;shape=mxgraph.mockup.buttons.button;strokeColor=#6F0000;fontColor=#ffffff;mainText=;buttonStyle=round;fontSize=13;fontStyle=1;fillColor=#a20025;whiteSpace=wrap;" vertex="1" parent="1">
          <mxGeometry x="512.5" y="2650" width="97.5" height="40" as="geometry" />
        </mxCell>
        <mxCell id="ouvQM5jBwTIjD2_veTdS-208" value="&lt;div style=&quot;margin-top: 0px; font-size: 11px;&quot;&gt;Amount to bet, when raising or during the beginning of the game. Will cap at your max funds.&lt;/div&gt;" style="text;html=1;whiteSpace=wrap;overflow=hidden;rounded=0;glass=0;strokeColor=default;shadow=0;dashed=1;align=center;fontFamily=Lucida Console;spacing=5;" vertex="1" parent="1">
          <mxGeometry x="120" y="2340" width="145" height="90" as="geometry" />
        </mxCell>
        <mxCell id="ouvQM5jBwTIjD2_veTdS-209" value="" style="endArrow=none;dashed=1;html=1;dashPattern=1 3;strokeWidth=2;rounded=0;" edge="1" parent="1">
          <mxGeometry width="50" height="50" relative="1" as="geometry">
            <mxPoint x="280" y="2420" as="sourcePoint" />
            <mxPoint x="340" y="2470" as="targetPoint" />
          </mxGeometry>
        </mxCell>
        <mxCell id="ouvQM5jBwTIjD2_veTdS-210" value="&lt;h1 style=&quot;font-size: 11px;&quot;&gt;Friend Code:&lt;/h1&gt;&lt;div&gt;39fdsa&lt;/div&gt;" style="text;html=1;align=center;verticalAlign=middle;whiteSpace=wrap;rounded=0;fontSize=11;labelPosition=center;verticalLabelPosition=middle;labelBorderColor=none;textShadow=0;labelBackgroundColor=none;" vertex="1" parent="1">
          <mxGeometry x="942.5" y="2690" width="103" height="40" as="geometry" />
        </mxCell>
      </root>
    </mxGraphModel>
  </diagram>
</mxfile>
